<svg width="188" height="188" viewBox="0 0 188 188" fill="none" xmlns="http://www.w3.org/2000/svg">
<mask id="mask0_1159_79" style="mask-type:alpha" maskUnits="userSpaceOnUse" x="0" y="0" width="188" height="188">
<rect width="188" height="188" fill="#D9D9D9"/>
</mask>
<g mask="url(#mask0_1159_79)">
<path d="M29.9303 57.2682C19.7777 39.6834 25.8027 17.1979 43.3874 7.04531C60.9722 -3.10727 82.3423 3.61078 93.6103 20.5025C104.637 37.0317 97.7379 60.5728 80.1532 70.7254C62.5684 80.878 41.249 76.8728 29.9303 57.2682Z" fill="#3B82F6"/>
<path d="M91.3809 90.0118C91.3809 90.0118 40.8683 74.1264 37.9087 66.7975C34.9491 59.4687 93.6392 26.9743 97.9933 32.1077C102.347 37.241 91.3809 90.0118 91.3809 90.0118Z" fill="#3B82F6"/>
<path d="M157.062 130.274C167.215 147.859 161.19 170.344 143.605 180.497C126.02 190.649 104.65 183.931 93.3823 167.04C82.3561 150.51 89.2547 126.969 106.84 116.817C124.424 106.664 145.744 110.669 157.062 130.274Z" fill="#3B82F6"/>
<path d="M95.6118 97.5302C95.6118 97.5302 146.124 113.416 149.084 120.744C152.044 128.073 93.3535 160.568 88.9994 155.434C84.6453 150.301 95.6118 97.5302 95.6118 97.5302Z" fill="#3B82F6"/>
<path d="M57.4911 157.445C39.9063 167.598 17.4208 161.573 7.26821 143.988C-2.88437 126.404 3.83368 105.033 20.7254 93.7654C37.2546 82.7392 60.7957 89.6378 70.9483 107.223C81.1009 124.807 77.0957 146.127 57.4911 157.445Z" fill="#3B82F6"/>
<path d="M90.2347 95.9949C90.2347 95.9949 74.3493 146.507 67.0204 149.467C59.6916 152.427 27.1972 93.7365 32.3306 89.3824C37.4639 85.0283 90.2347 95.9949 90.2347 95.9949Z" fill="#3B82F6"/>
<path d="M166.88 94.2897C184.464 84.1371 190.489 61.6515 180.337 44.0668C170.184 26.482 148.318 21.615 130.114 30.6096C112.3 39.4112 106.504 63.2477 116.657 80.8325C126.809 98.4173 147.275 105.608 166.88 94.2897Z" fill="#3B82F6"/>
<path d="M97.2901 91.9211C97.2901 91.9211 148.978 103.42 155.205 98.5531C161.433 93.6859 126.853 36.1999 120.516 38.4685C114.178 40.737 97.2901 91.9211 97.2901 91.9211Z" fill="#3B82F6"/>
</g>
</svg>
