<svg width="366" height="281" viewBox="0 0 366 281" fill="none" xmlns="http://www.w3.org/2000/svg">
<mask id="mask0_1159_54" style="mask-type:alpha" maskUnits="userSpaceOnUse" x="0" y="0" width="366" height="281">
<rect width="366" height="281" fill="#D9D9D9"/>
</mask>
<g mask="url(#mask0_1159_54)">
<path d="M118.93 57.2682C108.778 39.6834 114.803 17.1979 132.387 7.04531C149.972 -3.10727 171.342 3.61078 182.61 20.5025C193.637 37.0317 186.738 60.5728 169.153 70.7254C151.568 80.878 130.249 76.8728 118.93 57.2682Z" fill="#3B82F6"/>
<path d="M180.381 90.0118C180.381 90.0118 129.868 74.1264 126.909 66.7975C123.949 59.4687 182.639 26.9743 186.993 32.1077C191.347 37.241 180.381 90.0118 180.381 90.0118Z" fill="#3B82F6"/>
<path d="M246.062 130.274C256.215 147.859 250.19 170.344 232.605 180.497C215.02 190.649 193.65 183.931 182.382 167.04C171.356 150.51 178.255 126.969 195.84 116.817C213.424 106.664 234.744 110.669 246.062 130.274Z" fill="#3B82F6"/>
<path d="M184.612 97.5302C184.612 97.5302 235.124 113.416 238.084 120.744C241.044 128.073 182.353 160.568 177.999 155.434C173.645 150.301 184.612 97.5302 184.612 97.5302Z" fill="#3B82F6"/>
<path d="M146.491 157.445C128.906 167.598 106.421 161.573 96.2682 143.988C86.1156 126.404 92.8337 105.033 109.725 93.7654C126.255 82.7392 149.796 89.6378 159.948 107.223C170.101 124.807 166.096 146.127 146.491 157.445Z" fill="#3B82F6"/>
<path d="M179.235 95.9949C179.235 95.9949 163.349 146.507 156.02 149.467C148.692 152.427 116.197 93.7365 121.331 89.3824C126.464 85.0283 179.235 95.9949 179.235 95.9949Z" fill="#3B82F6"/>
<path d="M255.88 94.2897C273.464 84.1371 279.489 61.6515 269.337 44.0668C259.184 26.482 237.318 21.615 219.114 30.6096C201.3 39.4112 195.504 63.2477 205.657 80.8325C215.809 98.4173 236.275 105.608 255.88 94.2897Z" fill="#3B82F6"/>
<path d="M186.29 91.9211C186.29 91.9211 237.978 103.42 244.205 98.5531C250.433 93.6859 215.853 36.1999 209.516 38.4685C203.178 40.737 186.29 91.9211 186.29 91.9211Z" fill="#3B82F6"/>
<path d="M18.0375 252.201H20.9175C23.0935 252.201 25.0348 251.859 26.7415 251.177C28.4482 250.494 29.8775 249.555 31.0295 248.361C32.2242 247.166 33.1202 245.758 33.7175 244.137C34.3575 242.473 34.6775 240.659 34.6775 238.697C34.6775 236.777 34.3575 234.985 33.7175 233.321C33.0775 231.657 32.1602 230.227 30.9655 229.033C29.8135 227.838 28.3842 226.899 26.6775 226.217C24.9708 225.534 23.0508 225.193 20.9175 225.193H18.0375V252.201ZM5.4935 214.569H24.0535C27.3388 214.569 30.4108 215.23 33.2695 216.553C36.1708 217.875 38.6882 219.646 40.8215 221.865C42.9975 224.041 44.7042 226.601 45.9415 229.545C47.1788 232.446 47.7975 235.497 47.7975 238.697C47.7975 241.854 47.1788 244.905 45.9415 247.849C44.7468 250.75 43.0615 253.31 40.8855 255.529C38.7522 257.747 36.2348 259.518 33.3335 260.841C30.4748 262.163 27.3815 262.825 24.0535 262.825H5.4935V214.569ZM68.35 236.137H70.718C73.1927 236.137 75.0913 235.625 76.414 234.601C77.7367 233.577 78.398 232.105 78.398 230.185C78.398 228.265 77.7367 226.793 76.414 225.769C75.0913 224.745 73.1927 224.233 70.718 224.233H68.35V236.137ZM95.934 262.825H80.318L68.35 244.265V262.825H55.806V214.569H75.326C78.014 214.569 80.3607 214.974 82.366 215.785C84.3713 216.553 86.014 217.619 87.294 218.985C88.6167 220.35 89.598 221.929 90.238 223.721C90.9207 225.513 91.262 227.433 91.262 229.481C91.262 233.15 90.366 236.137 88.574 238.441C86.8247 240.702 84.222 242.238 80.766 243.049L95.934 262.825ZM128.637 225.193H113.725V233.257H127.805V243.881H113.725V252.201H128.637V262.825H101.181V214.569H128.637V225.193ZM164.177 226.921C162.812 225.811 161.446 225.001 160.081 224.489C158.716 223.934 157.393 223.657 156.113 223.657C154.492 223.657 153.169 224.041 152.145 224.809C151.121 225.577 150.609 226.579 150.609 227.817C150.609 228.67 150.865 229.374 151.377 229.929C151.889 230.483 152.55 230.974 153.361 231.401C154.214 231.785 155.153 232.126 156.177 232.425C157.244 232.723 158.289 233.043 159.313 233.385C163.409 234.75 166.396 236.585 168.273 238.889C170.193 241.15 171.153 244.115 171.153 247.785C171.153 250.259 170.726 252.499 169.873 254.505C169.062 256.51 167.846 258.238 166.225 259.689C164.646 261.097 162.684 262.185 160.337 262.953C158.033 263.763 155.409 264.169 152.465 264.169C146.364 264.169 140.71 262.355 135.505 258.729L140.881 248.617C142.758 250.281 144.614 251.518 146.449 252.329C148.284 253.139 150.097 253.545 151.889 253.545C153.937 253.545 155.452 253.075 156.433 252.137C157.457 251.198 157.969 250.131 157.969 248.937C157.969 248.211 157.841 247.593 157.585 247.081C157.329 246.526 156.902 246.035 156.305 245.609C155.708 245.139 154.918 244.713 153.937 244.329C152.998 243.945 151.846 243.518 150.481 243.049C148.86 242.537 147.26 241.982 145.681 241.385C144.145 240.745 142.758 239.913 141.521 238.889C140.326 237.865 139.345 236.585 138.577 235.049C137.852 233.47 137.489 231.486 137.489 229.097C137.489 226.707 137.873 224.553 138.641 222.633C139.452 220.67 140.561 219.006 141.969 217.641C143.42 216.233 145.169 215.145 147.217 214.377C149.308 213.609 151.633 213.225 154.193 213.225C156.582 213.225 159.078 213.566 161.681 214.249C164.284 214.889 166.78 215.849 169.169 217.129L164.177 226.921ZM191.6 234.473L206.896 214.569H222.384L203.248 237.417L224.176 262.825H207.92L191.6 241.897V262.825H179.056V214.569H191.6V234.473ZM249.61 225.193V262.825H237.066V225.193H226.762V214.569H259.914V225.193H249.61ZM276 238.697C276 240.617 276.363 242.387 277.088 244.009C277.813 245.63 278.795 247.038 280.032 248.233C281.269 249.427 282.699 250.366 284.32 251.049C285.984 251.689 287.733 252.009 289.568 252.009C291.403 252.009 293.131 251.689 294.752 251.049C296.416 250.366 297.867 249.427 299.104 248.233C300.384 247.038 301.387 245.63 302.112 244.009C302.837 242.387 303.2 240.617 303.2 238.697C303.2 236.777 302.837 235.006 302.112 233.385C301.387 231.763 300.384 230.355 299.104 229.161C297.867 227.966 296.416 227.049 294.752 226.409C293.131 225.726 291.403 225.385 289.568 225.385C287.733 225.385 285.984 225.726 284.32 226.409C282.699 227.049 281.269 227.966 280.032 229.161C278.795 230.355 277.813 231.763 277.088 233.385C276.363 235.006 276 236.777 276 238.697ZM262.88 238.697C262.88 235.113 263.541 231.785 264.864 228.713C266.187 225.598 268.021 222.889 270.368 220.585C272.715 218.281 275.509 216.489 278.752 215.209C282.037 213.886 285.643 213.225 289.568 213.225C293.451 213.225 297.035 213.886 300.32 215.209C303.605 216.489 306.421 218.281 308.768 220.585C311.157 222.889 313.013 225.598 314.336 228.713C315.659 231.785 316.32 235.113 316.32 238.697C316.32 242.281 315.659 245.63 314.336 248.745C313.013 251.817 311.157 254.505 308.768 256.809C306.421 259.113 303.605 260.926 300.32 262.249C297.035 263.529 293.451 264.169 289.568 264.169C285.643 264.169 282.037 263.529 278.752 262.249C275.509 260.926 272.715 259.113 270.368 256.809C268.021 254.505 266.187 251.817 264.864 248.745C263.541 245.63 262.88 242.281 262.88 238.697ZM336.788 236.713H340.948C345.556 236.713 347.86 234.707 347.86 230.697C347.86 226.686 345.556 224.681 340.948 224.681H336.788V236.713ZM336.788 262.825H324.244V214.569H344.212C349.63 214.569 353.769 215.977 356.628 218.793C359.529 221.609 360.98 225.577 360.98 230.697C360.98 235.817 359.529 239.785 356.628 242.601C353.769 245.417 349.63 246.825 344.212 246.825H336.788V262.825Z" fill="#3B82F6"/>
</g>
</svg>
